<svg xmlns="http://www.w3.org/2000/svg" viewBox="0 0 168.17 148.6"><path d="M85.88 13.37H20.99l-7.69 7.69h64.89l7.69-7.69zM72.58 26.68H7.69L0 34.36h64.89l7.69-7.68zM100.46 33.62a15.39 15.39 0 0 0 4.54-11v-9.75l-1 3.41a19.8 19.8 0 0 1-4.69 7.59l-34.06 34a15.39 15.39 0 0 0-4.54 11v9.78l1-3.4a19.87 19.87 0 0 1 4.69-7.6Z"/><path d="M65.27 38.9a15.36 15.36 0 0 0-4.54 11v9.78l1-3.4a19.87 19.87 0 0 1 4.69-7.6l34.06-33.93a15.41 15.41 0 0 0 4.54-11V0H34.36l-7.68 7.69h69.93ZM128.06 91.16l7.69-7.68H69.52l30.94-30.95a15.39 15.39 0 0 0 4.54-11V31.28l-1 3.92a18.15 18.15 0 0 1-4.68 7.58L63.81 78.32a10.4 10.4 0 0 0-3.08 7.42v5.42Z"/><path d="M149.12 70.11h-61.2l-7.69 7.68h61.21l7.68-7.68z"/><path d="M168.17 56.73h-66.88l-7.68 7.69h66.26l-35.68 35.66V111l39.44-39.43a15.38 15.38 0 0 0 4.54-11ZM162.51 80.78l-38.15 38v10.87l39.27-39.17a15.38 15.38 0 0 0 4.54-11v-9.7l-1 3.4a19.92 19.92 0 0 1-4.66 7.6ZM162.51 99.71l-38.15 38v10.89l39.27-39.14a15.39 15.39 0 0 0 4.54-11v-9.74l-1 3.4a19.85 19.85 0 0 1-4.66 7.59Z"/></svg>
